grf
version=1
nRows=19
nColumns=37
inDegrees=no
endheader
time	ground_force_1_vx	ground_force_1_vy	ground_force_1_vz	ground_force_1_px	ground_force_1_py	ground_force_1_pz	ground_moment_1_mx	ground_moment_1_my	ground_moment_1_mz	ground_force_2_vx	ground_force_2_vy	ground_force_2_vz	ground_force_2_px	ground_force_2_py	ground_force_2_pz	ground_moment_2_mx	ground_moment_2_my	ground_moment_2_mz	ground_force_3_vx	ground_force_3_vy	ground_force_3_vz	ground_force_3_px	ground_force_3_py	ground_force_3_pz	ground_moment_3_mx	ground_moment_3_my	ground_moment_3_mz	ground_force_4_vx	ground_force_4_vy	ground_force_4_vz	ground_force_4_px	ground_force_4_py	ground_force_4_pz	ground_moment_4_mx	ground_moment_4_my	ground_moment_4_mz
      0.00000000	      0.00000000	     -0.00000000	      0.00000000	      0.00000000	      0.00000000	      0.00000000	      0.00000000	      0.00000000	      0.00000000	      0.56318319	      1.03055632	    -87.46730042	   -326.78216556	   -983.59287502	      0.00000000	      0.00000000	      0.00000000	   1018.33591720	     -1.28006946	    -16.21979321	   -690.82104492	   -339.03485449	   -795.06127621	      0.00000000	      0.00000000	     -0.00000000	  -2183.95574091	      0.00000000	     -0.00000000	      0.00000000	      0.00000000	      0.00000000	      0.00000000	      0.00000000	      0.00000000	      0.00000000
      0.01000000	      0.00000000	     -0.00000000	      0.00000000	      0.00000000	      0.00000000	      0.00000000	      0.00000000	      0.00000000	      0.00000000	      0.27657780	      0.83246285	    -89.77854156	   -326.68992041	   -990.00705718	      0.00000000	      0.00000000	      0.00000000	    899.31991240	     -1.36899812	    -15.81667697	   -685.78112793	   -338.11304675	   -795.06417292	      0.00000000	      0.00000000	     -0.00000000	  -2284.05014962	      0.00000000	     -0.00000000	      0.00000000	      0.00000000	      0.00000000	      0.00000000	      0.00000000	      0.00000000	      0.00000000
      0.02000000	      0.00000000	     -0.00000000	      0.00000000	      0.00000000	      0.00000000	      0.00000000	      0.00000000	      0.00000000	      0.00000000	      1.04122186	      1.11922574	    -91.94536591	   -326.55736785	   -990.42280269	      0.00000000	      0.00000000	      0.00000000	   1234.17883092	     -1.45794971	    -15.79807269	   -681.07342529	   -338.10321759	   -795.27295204	      0.00000000	      0.00000000	      0.00000000	  -2364.53311001	      0.00000000	     -0.00000000	      0.00000000	      0.00000000	      0.00000000	      0.00000000	      0.00000000	      0.00000000	      0.00000000
      0.03000000	      0.00000000	     -0.00000000	      0.00000000	      0.00000000	      0.00000000	      0.00000000	      0.00000000	      0.00000000	      0.00000000	      0.30740353	      1.37669230	    -93.59268188	   -327.29831863	   -991.64164182	      0.00000000	      0.00000000	      0.00000000	   1074.95224647	     -0.64039750	    -15.15265841	   -676.54638672	   -337.88932458	   -794.98481806	      0.00000000	      0.00000000	     -0.00000000	  -2348.67899859	      0.00000000	     -0.00000000	      0.00000000	      0.00000000	      0.00000000	      0.00000000	      0.00000000	      0.00000000	      0.00000000
      0.04000000	      0.00000000	     -0.00000000	      0.00000000	      0.00000000	      0.00000000	      0.00000000	      0.00000000	      0.00000000	      0.00000000	      0.20007062	      2.03918409	    -95.32222748	   -326.09813820	   -992.39438574	      0.00000000	      0.00000000	      0.00000000	   1078.42763599	      0.06916846	    -14.31706811	   -671.84460449	   -337.93347014	   -795.40539021	      0.00000000	      0.00000000	     -0.00000000	  -2360.47795818	      0.00000000	     -0.00000000	      0.00000000	      0.00000000	      0.00000000	      0.00000000	      0.00000000	      0.00000000	      0.00000000
      0.05000000	      0.00000000	     -0.00000000	      0.00000000	      0.00000000	      0.00000000	      0.00000000	      0.00000000	      0.00000000	      0.00000000	     -0.47491512	      1.94077086	    -97.99011993	   -325.84457434	   -991.43540953	      0.00000000	      0.00000000	      0.00000000	    762.06730715	      0.71979827	    -14.27848059	   -668.19891357	   -338.21470450	   -794.53713833	      0.00000000	      0.00000000	     -0.00000000	  -2447.99390774	      0.00000000	     -0.00000000	      0.00000000	      0.00000000	      0.00000000	      0.00000000	      0.00000000	      0.00000000	      0.00000000
      0.06000000	      0.00000000	     -0.00000000	      0.00000000	      0.00000000	      0.00000000	      0.00000000	      0.00000000	      0.00000000	      0.00000000	      0.10944759	      2.43499446	   -100.49604797	   -324.38971842	   -989.97822402	      0.00000000	      0.00000000	      0.00000000	   1065.82464446	      1.09392961	    -14.05324183	   -664.39562988	   -338.48159042	   -794.99680982	      0.00000000	     -0.00000000	     -0.00000000	  -2529.45369828	      0.00000000	     -0.00000000	      0.00000000	      0.00000000	      0.00000000	      0.00000000	      0.00000000	      0.00000000	      0.00000000
      0.07000000	      0.00000000	     -0.00000000	      0.00000000	      0.00000000	      0.00000000	      0.00000000	      0.00000000	      0.00000000	      0.00000000	      0.08921051	      2.92873287	   -103.75430298	   -327.11665349	   -989.27543156	      0.00000000	      0.00000000	      0.00000000	   1150.84575920	      0.96666849	    -13.65025529	   -661.52172852	   -338.52431038	   -795.08293123	      0.00000000	     -0.00000000	     -0.00000000	  -2411.40840346	      0.00000000	     -0.00000000	      0.00000000	      0.00000000	      0.00000000	      0.00000000	      0.00000000	      0.00000000	      0.00000000
      0.08000000	      0.00000000	     -0.00000000	      0.00000000	      0.00000000	      0.00000000	      0.00000000	      0.00000000	      0.00000000	      0.00000000	     -0.02773388	      2.92082953	   -106.11623383	   -328.47608508	   -990.10071007	      0.00000000	      0.00000000	      0.00000000	   1015.61899940	      1.41937139	    -13.34793103	   -658.30841064	   -338.73315495	   -795.43751222	      0.00000000	     -0.00000000	     -0.00000000	  -2599.09224310	      0.00000000	     -0.00000000	      0.00000000	      0.00000000	      0.00000000	      0.00000000	      0.00000000	      0.00000000	      0.00000000
      0.09000000	      0.00000000	     -0.00000000	      0.00000000	      0.00000000	      0.00000000	      0.00000000	      0.00000000	      0.00000000	      0.00000000	      0.05481294	      3.49666858	   -111.46868134	   -327.63437362	   -995.06282392	      0.00000000	      0.00000000	      0.00000000	   1205.36538111	      1.10479223	    -13.66981802	   -654.97625732	   -338.80036326	   -796.43144731	      0.00000000	      0.00000000	     -0.00000000	  -2517.67323331	      0.00000000	     -0.00000000	      0.00000000	      0.00000000	      0.00000000	      0.00000000	      0.00000000	      0.00000000	      0.00000000
      0.10000000	      0.00000000	     -0.00000000	      0.00000000	      0.00000000	      0.00000000	      0.00000000	      0.00000000	      0.00000000	      0.00000000	      0.56230617	      3.68136525	   -114.89054108	   -326.56864998	   -995.40338502	      0.00000000	      0.00000000	      0.00000000	   1249.92731954	      1.03657483	    -13.71002492	   -654.49987793	   -338.69239556	   -794.93092420	      0.00000000	      0.00000000	      0.00000000	  -2515.51541821	      0.00000000	     -0.00000000	      0.00000000	      0.00000000	      0.00000000	      0.00000000	      0.00000000	      0.00000000	      0.00000000
      0.11000000	      0.00000000	     -0.00000000	      0.00000000	      0.00000000	      0.00000000	      0.00000000	      0.00000000	      0.00000000	      0.00000000	     -0.04752338	      4.03169298	   -119.62237549	   -325.86679171	   -997.97612370	      0.00000000	      0.00000000	      0.00000000	   1110.42767754	      1.39177915	    -14.03005231	   -650.87042236	   -338.39646768	   -795.59127395	      0.00000000	     -0.00000000	     -0.00000000	  -2752.00575454	      0.00000000	     -0.00000000	      0.00000000	      0.00000000	      0.00000000	      0.00000000	      0.00000000	      0.00000000	      0.00000000
      0.12000000	      0.00000000	     -0.00000000	      0.00000000	      0.00000000	      0.00000000	      0.00000000	      0.00000000	      0.00000000	      0.00000000	      0.11018787	      4.18912888	   -124.61045074	   -324.97850693	   -999.57942878	      0.00000000	      0.00000000	      0.00000000	   1185.68151233	      1.13942026	    -13.73735152	   -647.51483154	   -338.18297856	   -795.16564247	      0.00000000	      0.00000000	     -0.00000000	  -2583.92304360	      0.00000000	     -0.00000000	      0.00000000	      0.00000000	      0.00000000	      0.00000000	      0.00000000	      0.00000000	      0.00000000
      0.13000000	      0.00000000	     -0.00000000	      0.00000000	      0.00000000	      0.00000000	      0.00000000	      0.00000000	      0.00000000	      0.00000000	      0.08434489	      4.81304169	   -127.33099365	   -327.75284717	   -996.86053722	      0.00000000	      0.00000000	      0.00000000	   1359.32852237	      0.83962421	    -13.79870708	   -643.29956055	   -338.12673219	   -795.57354612	      0.00000000	      0.00000000	     -0.00000000	  -2626.57440169	      0.00000000	     -0.00000000	      0.00000000	      0.00000000	      0.00000000	      0.00000000	      0.00000000	      0.00000000	      0.00000000
      0.14000000	      0.00000000	     -0.00000000	      0.00000000	      0.00000000	      0.00000000	      0.00000000	      0.00000000	      0.00000000	      0.00000000	     -0.25080362	      4.99567842	   -131.73611450	   -325.98159671	   -999.06208405	      0.00000000	      0.00000000	      0.00000000	   1155.39631886	      0.73619100	    -13.34232051	   -641.30987549	   -338.03102769	   -794.91623133	      0.00000000	      0.00000000	     -0.00000000	  -2683.51093685	      0.00000000	     -0.00000000	      0.00000000	      0.00000000	      0.00000000	      0.00000000	      0.00000000	      0.00000000	      0.00000000
      0.15000000	      0.00000000	     -0.00000000	      0.00000000	      0.00000000	      0.00000000	      0.00000000	      0.00000000	      0.00000000	      0.00000000	     -0.28897277	      5.19088554	   -135.83573914	   -325.19132015	   -998.40947533	      0.00000000	      0.00000000	      0.00000000	   1414.51743603	      0.66270987	    -13.24825293	   -637.90002441	   -338.14533152	   -794.92743095	      0.00000000	      0.00000000	     -0.00000000	  -2626.60792088	      0.00000000	     -0.00000000	      0.00000000	      0.00000000	      0.00000000	      0.00000000	      0.00000000	      0.00000000	      0.00000000
      0.16000000	      0.00000000	     -0.00000000	      0.00000000	      0.00000000	      0.00000000	      0.00000000	      0.00000000	      0.00000000	      0.00000000	     -0.17505983	      5.68290281	   -140.38237000	   -323.98486364	   -996.87667328	      0.00000000	      0.00000000	      0.00000000	   1475.53439213	      1.24670802	    -12.45335781	   -635.12548828	   -337.73963778	   -794.90725466	      0.00000000	      0.00000000	     -0.00000000	  -2786.72237848	      0.00000000	     -0.00000000	      0.00000000	      0.00000000	      0.00000000	      0.00000000	      0.00000000	      0.00000000	      0.00000000
      0.17000000	      0.00000000	     -0.00000000	      0.00000000	      0.00000000	      0.00000000	      0.00000000	      0.00000000	      0.00000000	      0.00000000	     -0.26465744	      5.85809517	   -144.80377197	   -325.49480477	   -997.25379257	      0.00000000	      0.00000000	      0.00000000	   1389.58697172	      1.39391384	    -12.51633370	   -631.86419678	   -337.96207875	   -794.34154168	      0.00000000	      0.00000000	     -0.00000000	  -2646.70429323	      0.00000000	     -0.00000000	      0.00000000	      0.00000000	      0.00000000	      0.00000000	      0.00000000	      0.00000000	      0.00000000
      0.18000000	      0.00000000	     -0.00000000	      0.00000000	      0.00000000	      0.00000000	      0.00000000	      0.00000000	      0.00000000	      0.00000000	     -0.42679796	      5.85849667	   -148.17346191	   -326.08112951	   -994.68993860	      0.00000000	      0.00000000	      0.00000000	   1351.50517635	      1.33066072	    -12.07512295	   -627.07629395	   -337.68149342	   -794.74096796	      0.00000000	      0.00000000	     -0.00000000	  -2673.13597287	      0.00000000	     -0.00000000	      0.00000000	      0.00000000	      0.00000000	      0.00000000	      0.00000000	      0.00000000	      0.00000000
